<mxfile host="app.diagrams.net" modified="2023-06-07T10:41:52.349Z" agent="Mozilla/5.0 (Macintosh; Intel Mac OS X 10_15_7) AppleWebKit/537.36 (KHTML, like Gecko) Chrome/113.0.0.0 Safari/537.36" etag="lkaiRHnKsfdu0PkHfGVt" version="21.3.7" type="device" pages="2">
  <diagram name="Exercise 1. - EER" id="8LdKjrW5o5v6_MZnC3DV">
    <mxGraphModel dx="1052" dy="869" grid="1" gridSize="10" guides="1" tooltips="1" connect="1" arrows="1" fold="1" page="1" pageScale="1" pageWidth="850" pageHeight="1100" math="0" shadow="0">
      <root>
        <mxCell id="0" />
        <mxCell id="1" parent="0" />
        <mxCell id="2HnAGzsjVUiI7YeuSGSB-1" value="&lt;font style=&quot;font-size: 24px;&quot;&gt;Exercise 1. EER - GOLF CLUB&lt;/font&gt;" style="text;html=1;strokeColor=none;fillColor=none;align=center;verticalAlign=middle;whiteSpace=wrap;rounded=0;" vertex="1" parent="1">
          <mxGeometry x="40" y="40" width="420" height="30" as="geometry" />
        </mxCell>
        <mxCell id="2HnAGzsjVUiI7YeuSGSB-2" value="Hole" style="swimlane;fontStyle=0;childLayout=stackLayout;horizontal=1;startSize=30;horizontalStack=0;resizeParent=1;resizeParentMax=0;resizeLast=0;collapsible=1;marginBottom=0;whiteSpace=wrap;html=1;" vertex="1" parent="1">
          <mxGeometry x="30" y="160" width="140" height="120" as="geometry" />
        </mxCell>
        <mxCell id="2HnAGzsjVUiI7YeuSGSB-3" value="hole_number {PK}" style="text;strokeColor=none;fillColor=none;align=left;verticalAlign=middle;spacingLeft=4;spacingRight=4;overflow=hidden;points=[[0,0.5],[1,0.5]];portConstraint=eastwest;rotatable=0;whiteSpace=wrap;html=1;" vertex="1" parent="2HnAGzsjVUiI7YeuSGSB-2">
          <mxGeometry y="30" width="140" height="30" as="geometry" />
        </mxCell>
        <mxCell id="2HnAGzsjVUiI7YeuSGSB-4" value="description" style="text;strokeColor=none;fillColor=none;align=left;verticalAlign=middle;spacingLeft=4;spacingRight=4;overflow=hidden;points=[[0,0.5],[1,0.5]];portConstraint=eastwest;rotatable=0;whiteSpace=wrap;html=1;" vertex="1" parent="2HnAGzsjVUiI7YeuSGSB-2">
          <mxGeometry y="60" width="140" height="30" as="geometry" />
        </mxCell>
        <mxCell id="2HnAGzsjVUiI7YeuSGSB-5" value="designated_par" style="text;strokeColor=none;fillColor=none;align=left;verticalAlign=middle;spacingLeft=4;spacingRight=4;overflow=hidden;points=[[0,0.5],[1,0.5]];portConstraint=eastwest;rotatable=0;whiteSpace=wrap;html=1;" vertex="1" parent="2HnAGzsjVUiI7YeuSGSB-2">
          <mxGeometry y="90" width="140" height="30" as="geometry" />
        </mxCell>
        <mxCell id="2HnAGzsjVUiI7YeuSGSB-10" value="Player" style="swimlane;fontStyle=0;childLayout=stackLayout;horizontal=1;startSize=30;horizontalStack=0;resizeParent=1;resizeParentMax=0;resizeLast=0;collapsible=1;marginBottom=0;whiteSpace=wrap;html=1;" vertex="1" parent="1">
          <mxGeometry x="370" y="506.33" width="160" height="150" as="geometry" />
        </mxCell>
        <mxCell id="2HnAGzsjVUiI7YeuSGSB-11" value="name" style="text;strokeColor=none;fillColor=none;align=left;verticalAlign=middle;spacingLeft=4;spacingRight=4;overflow=hidden;points=[[0,0.5],[1,0.5]];portConstraint=eastwest;rotatable=0;whiteSpace=wrap;html=1;" vertex="1" parent="2HnAGzsjVUiI7YeuSGSB-10">
          <mxGeometry y="30" width="160" height="30" as="geometry" />
        </mxCell>
        <mxCell id="2HnAGzsjVUiI7YeuSGSB-12" value="membership_number { PK}" style="text;strokeColor=none;fillColor=none;align=left;verticalAlign=middle;spacingLeft=4;spacingRight=4;overflow=hidden;points=[[0,0.5],[1,0.5]];portConstraint=eastwest;rotatable=0;whiteSpace=wrap;html=1;" vertex="1" parent="2HnAGzsjVUiI7YeuSGSB-10">
          <mxGeometry y="60" width="160" height="30" as="geometry" />
        </mxCell>
        <mxCell id="2HnAGzsjVUiI7YeuSGSB-13" value="membership_kind" style="text;strokeColor=none;fillColor=none;align=left;verticalAlign=middle;spacingLeft=4;spacingRight=4;overflow=hidden;points=[[0,0.5],[1,0.5]];portConstraint=eastwest;rotatable=0;whiteSpace=wrap;html=1;" vertex="1" parent="2HnAGzsjVUiI7YeuSGSB-10">
          <mxGeometry y="90" width="160" height="30" as="geometry" />
        </mxCell>
        <mxCell id="2HnAGzsjVUiI7YeuSGSB-14" value="handicap" style="text;strokeColor=none;fillColor=none;align=left;verticalAlign=middle;spacingLeft=4;spacingRight=4;overflow=hidden;points=[[0,0.5],[1,0.5]];portConstraint=eastwest;rotatable=0;whiteSpace=wrap;html=1;" vertex="1" parent="2HnAGzsjVUiI7YeuSGSB-10">
          <mxGeometry y="120" width="160" height="30" as="geometry" />
        </mxCell>
        <mxCell id="2HnAGzsjVUiI7YeuSGSB-15" value="Cheaper" style="swimlane;fontStyle=0;childLayout=stackLayout;horizontal=1;startSize=30;horizontalStack=0;resizeParent=1;resizeParentMax=0;resizeLast=0;collapsible=1;marginBottom=0;whiteSpace=wrap;html=1;" vertex="1" parent="1">
          <mxGeometry x="230" y="765" width="140" height="60" as="geometry" />
        </mxCell>
        <mxCell id="2HnAGzsjVUiI7YeuSGSB-19" value="Caddy" style="swimlane;fontStyle=0;childLayout=stackLayout;horizontal=1;startSize=30;horizontalStack=0;resizeParent=1;resizeParentMax=0;resizeLast=0;collapsible=1;marginBottom=0;whiteSpace=wrap;html=1;" vertex="1" parent="1">
          <mxGeometry x="490" y="765" width="140" height="60" as="geometry" />
        </mxCell>
        <mxCell id="2HnAGzsjVUiI7YeuSGSB-21" value="golf_cart" style="text;strokeColor=none;fillColor=none;align=left;verticalAlign=middle;spacingLeft=4;spacingRight=4;overflow=hidden;points=[[0,0.5],[1,0.5]];portConstraint=eastwest;rotatable=0;whiteSpace=wrap;html=1;" vertex="1" parent="2HnAGzsjVUiI7YeuSGSB-19">
          <mxGeometry y="30" width="140" height="30" as="geometry" />
        </mxCell>
        <mxCell id="2HnAGzsjVUiI7YeuSGSB-23" value="" style="endArrow=none;html=1;rounded=0;exitX=0.698;exitY=0.009;exitDx=0;exitDy=0;entryX=1;entryY=0.5;entryDx=0;entryDy=0;exitPerimeter=0;" edge="1" parent="1" source="2HnAGzsjVUiI7YeuSGSB-19" target="2HnAGzsjVUiI7YeuSGSB-12">
          <mxGeometry width="50" height="50" relative="1" as="geometry">
            <mxPoint x="400" y="701.33" as="sourcePoint" />
            <mxPoint x="450" y="651.33" as="targetPoint" />
            <Array as="points">
              <mxPoint x="590" y="700" />
              <mxPoint x="590" y="721.33" />
              <mxPoint x="590" y="581.33" />
            </Array>
          </mxGeometry>
        </mxCell>
        <mxCell id="2HnAGzsjVUiI7YeuSGSB-24" value="serve /\" style="edgeLabel;html=1;align=center;verticalAlign=middle;resizable=0;points=[];" vertex="1" connectable="0" parent="2HnAGzsjVUiI7YeuSGSB-23">
          <mxGeometry x="-0.1343" y="1" relative="1" as="geometry">
            <mxPoint as="offset" />
          </mxGeometry>
        </mxCell>
        <mxCell id="2HnAGzsjVUiI7YeuSGSB-25" value="&amp;nbsp;0..*&amp;nbsp;" style="edgeLabel;html=1;align=center;verticalAlign=middle;resizable=0;points=[];" vertex="1" connectable="0" parent="2HnAGzsjVUiI7YeuSGSB-23">
          <mxGeometry x="0.8605" y="-2" relative="1" as="geometry">
            <mxPoint as="offset" />
          </mxGeometry>
        </mxCell>
        <mxCell id="2HnAGzsjVUiI7YeuSGSB-26" value="&amp;nbsp;0..*&amp;nbsp;" style="edgeLabel;html=1;align=center;verticalAlign=middle;resizable=0;points=[];" vertex="1" connectable="0" parent="2HnAGzsjVUiI7YeuSGSB-23">
          <mxGeometry x="-0.8529" y="-1" relative="1" as="geometry">
            <mxPoint as="offset" />
          </mxGeometry>
        </mxCell>
        <mxCell id="2HnAGzsjVUiI7YeuSGSB-27" value="" style="endArrow=none;dashed=1;html=1;dashPattern=1 3;strokeWidth=2;rounded=0;" edge="1" parent="1">
          <mxGeometry width="50" height="50" relative="1" as="geometry">
            <mxPoint x="590" y="656" as="sourcePoint" />
            <mxPoint x="660" y="656.33" as="targetPoint" />
          </mxGeometry>
        </mxCell>
        <mxCell id="2HnAGzsjVUiI7YeuSGSB-28" value="Service" style="swimlane;fontStyle=0;childLayout=stackLayout;horizontal=1;startSize=30;horizontalStack=0;resizeParent=1;resizeParentMax=0;resizeLast=0;collapsible=1;marginBottom=0;whiteSpace=wrap;html=1;" vertex="1" parent="1">
          <mxGeometry x="660" y="600" width="140" height="90" as="geometry" />
        </mxCell>
        <mxCell id="2HnAGzsjVUiI7YeuSGSB-29" value="date" style="text;strokeColor=none;fillColor=none;align=left;verticalAlign=middle;spacingLeft=4;spacingRight=4;overflow=hidden;points=[[0,0.5],[1,0.5]];portConstraint=eastwest;rotatable=0;whiteSpace=wrap;html=1;" vertex="1" parent="2HnAGzsjVUiI7YeuSGSB-28">
          <mxGeometry y="30" width="140" height="30" as="geometry" />
        </mxCell>
        <mxCell id="2HnAGzsjVUiI7YeuSGSB-30" value="payment" style="text;strokeColor=none;fillColor=none;align=left;verticalAlign=middle;spacingLeft=4;spacingRight=4;overflow=hidden;points=[[0,0.5],[1,0.5]];portConstraint=eastwest;rotatable=0;whiteSpace=wrap;html=1;" vertex="1" parent="2HnAGzsjVUiI7YeuSGSB-28">
          <mxGeometry y="60" width="140" height="30" as="geometry" />
        </mxCell>
        <mxCell id="2HnAGzsjVUiI7YeuSGSB-32" value="Round" style="swimlane;fontStyle=0;childLayout=stackLayout;horizontal=1;startSize=30;horizontalStack=0;resizeParent=1;resizeParentMax=0;resizeLast=0;collapsible=1;marginBottom=0;whiteSpace=wrap;html=1;" vertex="1" parent="1">
          <mxGeometry x="370" y="160" width="140" height="120" as="geometry" />
        </mxCell>
        <mxCell id="2HnAGzsjVUiI7YeuSGSB-33" value="date {PPK" style="text;strokeColor=none;fillColor=none;align=left;verticalAlign=middle;spacingLeft=4;spacingRight=4;overflow=hidden;points=[[0,0.5],[1,0.5]];portConstraint=eastwest;rotatable=0;whiteSpace=wrap;html=1;" vertex="1" parent="2HnAGzsjVUiI7YeuSGSB-32">
          <mxGeometry y="30" width="140" height="30" as="geometry" />
        </mxCell>
        <mxCell id="2HnAGzsjVUiI7YeuSGSB-34" value="start {PPK}" style="text;strokeColor=none;fillColor=none;align=left;verticalAlign=middle;spacingLeft=4;spacingRight=4;overflow=hidden;points=[[0,0.5],[1,0.5]];portConstraint=eastwest;rotatable=0;whiteSpace=wrap;html=1;" vertex="1" parent="2HnAGzsjVUiI7YeuSGSB-32">
          <mxGeometry y="60" width="140" height="30" as="geometry" />
        </mxCell>
        <mxCell id="2HnAGzsjVUiI7YeuSGSB-35" value="duration" style="text;strokeColor=none;fillColor=none;align=left;verticalAlign=middle;spacingLeft=4;spacingRight=4;overflow=hidden;points=[[0,0.5],[1,0.5]];portConstraint=eastwest;rotatable=0;whiteSpace=wrap;html=1;" vertex="1" parent="2HnAGzsjVUiI7YeuSGSB-32">
          <mxGeometry y="90" width="140" height="30" as="geometry" />
        </mxCell>
        <mxCell id="2HnAGzsjVUiI7YeuSGSB-39" value="" style="endArrow=none;html=1;rounded=0;entryX=-0.019;entryY=-0.078;entryDx=0;entryDy=0;entryPerimeter=0;exitX=1.024;exitY=0.989;exitDx=0;exitDy=0;exitPerimeter=0;" edge="1" parent="1" source="2HnAGzsjVUiI7YeuSGSB-4" target="2HnAGzsjVUiI7YeuSGSB-35">
          <mxGeometry width="50" height="50" relative="1" as="geometry">
            <mxPoint x="370" y="430" as="sourcePoint" />
            <mxPoint x="420" y="380" as="targetPoint" />
          </mxGeometry>
        </mxCell>
        <mxCell id="2HnAGzsjVUiI7YeuSGSB-40" value="&amp;nbsp;1..25" style="edgeLabel;html=1;align=center;verticalAlign=middle;resizable=0;points=[];" vertex="1" connectable="0" parent="2HnAGzsjVUiI7YeuSGSB-39">
          <mxGeometry x="-0.8252" y="-2" relative="1" as="geometry">
            <mxPoint as="offset" />
          </mxGeometry>
        </mxCell>
        <mxCell id="2HnAGzsjVUiI7YeuSGSB-41" value="&amp;nbsp;1..*&amp;nbsp;" style="edgeLabel;html=1;align=center;verticalAlign=middle;resizable=0;points=[];" vertex="1" connectable="0" parent="2HnAGzsjVUiI7YeuSGSB-39">
          <mxGeometry x="0.7731" y="-1" relative="1" as="geometry">
            <mxPoint as="offset" />
          </mxGeometry>
        </mxCell>
        <mxCell id="2HnAGzsjVUiI7YeuSGSB-42" value="&amp;nbsp;&amp;lt; up to&amp;nbsp;" style="edgeLabel;html=1;align=center;verticalAlign=middle;resizable=0;points=[];" vertex="1" connectable="0" parent="2HnAGzsjVUiI7YeuSGSB-39">
          <mxGeometry x="0.0408" y="-3" relative="1" as="geometry">
            <mxPoint as="offset" />
          </mxGeometry>
        </mxCell>
        <mxCell id="2HnAGzsjVUiI7YeuSGSB-43" value="" style="endArrow=none;html=1;rounded=0;exitX=0.485;exitY=1.119;exitDx=0;exitDy=0;exitPerimeter=0;" edge="1" parent="1" source="2HnAGzsjVUiI7YeuSGSB-35">
          <mxGeometry width="50" height="50" relative="1" as="geometry">
            <mxPoint x="433.98" y="264.44000000000005" as="sourcePoint" />
            <mxPoint x="440" y="500" as="targetPoint" />
          </mxGeometry>
        </mxCell>
        <mxCell id="2HnAGzsjVUiI7YeuSGSB-44" value="play in /\" style="edgeLabel;html=1;align=center;verticalAlign=middle;resizable=0;points=[];" vertex="1" connectable="0" parent="2HnAGzsjVUiI7YeuSGSB-43">
          <mxGeometry x="0.2688" y="2" relative="1" as="geometry">
            <mxPoint y="-11" as="offset" />
          </mxGeometry>
        </mxCell>
        <mxCell id="2HnAGzsjVUiI7YeuSGSB-45" value="0..*" style="edgeLabel;html=1;align=center;verticalAlign=middle;resizable=0;points=[];" vertex="1" connectable="0" parent="2HnAGzsjVUiI7YeuSGSB-43">
          <mxGeometry x="-0.6557" y="3" relative="1" as="geometry">
            <mxPoint as="offset" />
          </mxGeometry>
        </mxCell>
        <mxCell id="2HnAGzsjVUiI7YeuSGSB-47" value="0..*" style="edgeLabel;html=1;align=center;verticalAlign=middle;resizable=0;points=[];" vertex="1" connectable="0" parent="2HnAGzsjVUiI7YeuSGSB-43">
          <mxGeometry x="0.8236" relative="1" as="geometry">
            <mxPoint as="offset" />
          </mxGeometry>
        </mxCell>
        <mxCell id="2HnAGzsjVUiI7YeuSGSB-48" value="" style="endArrow=none;html=1;rounded=0;exitX=0.433;exitY=0.007;exitDx=0;exitDy=0;exitPerimeter=0;entryX=0.42;entryY=0.971;entryDx=0;entryDy=0;entryPerimeter=0;" edge="1" parent="1" source="2HnAGzsjVUiI7YeuSGSB-15" target="2HnAGzsjVUiI7YeuSGSB-14">
          <mxGeometry width="50" height="50" relative="1" as="geometry">
            <mxPoint x="400" y="640" as="sourcePoint" />
            <mxPoint x="450" y="590" as="targetPoint" />
            <Array as="points">
              <mxPoint x="290" y="720" />
              <mxPoint x="437" y="720" />
            </Array>
          </mxGeometry>
        </mxCell>
        <mxCell id="2HnAGzsjVUiI7YeuSGSB-50" value="{ optional, or }" style="edgeLabel;html=1;align=center;verticalAlign=middle;resizable=0;points=[];" vertex="1" connectable="0" parent="2HnAGzsjVUiI7YeuSGSB-48">
          <mxGeometry x="0.6486" y="1" relative="1" as="geometry">
            <mxPoint as="offset" />
          </mxGeometry>
        </mxCell>
        <mxCell id="2HnAGzsjVUiI7YeuSGSB-49" value="" style="endArrow=none;html=1;rounded=0;" edge="1" parent="1">
          <mxGeometry width="50" height="50" relative="1" as="geometry">
            <mxPoint x="440" y="720" as="sourcePoint" />
            <mxPoint x="530" y="760" as="targetPoint" />
            <Array as="points">
              <mxPoint x="530" y="720" />
            </Array>
          </mxGeometry>
        </mxCell>
        <mxCell id="2HnAGzsjVUiI7YeuSGSB-51" value="" style="triangle;whiteSpace=wrap;html=1;rotation=-90;" vertex="1" parent="1">
          <mxGeometry x="425" y="650" width="20" height="30" as="geometry" />
        </mxCell>
        <mxCell id="2HnAGzsjVUiI7YeuSGSB-52" value="" style="endArrow=none;dashed=1;html=1;dashPattern=1 3;strokeWidth=2;rounded=0;" edge="1" parent="1">
          <mxGeometry width="50" height="50" relative="1" as="geometry">
            <mxPoint x="520" y="390" as="sourcePoint" />
            <mxPoint x="440" y="390" as="targetPoint" />
          </mxGeometry>
        </mxCell>
        <mxCell id="2HnAGzsjVUiI7YeuSGSB-53" value="PlayerInRound" style="swimlane;fontStyle=0;childLayout=stackLayout;horizontal=1;startSize=30;horizontalStack=0;resizeParent=1;resizeParentMax=0;resizeLast=0;collapsible=1;marginBottom=0;whiteSpace=wrap;html=1;" vertex="1" parent="1">
          <mxGeometry x="520" y="330" width="140" height="90" as="geometry" />
        </mxCell>
        <mxCell id="2HnAGzsjVUiI7YeuSGSB-54" value="&lt;span style=&quot;color: rgb(0, 0, 0); font-family: Helvetica; font-size: 12px; font-style: normal; font-variant-ligatures: normal; font-variant-caps: normal; font-weight: 400; letter-spacing: normal; orphans: 2; text-align: left; text-indent: 0px; text-transform: none; widows: 2; word-spacing: 0px; -webkit-text-stroke-width: 0px; background-color: rgb(251, 251, 251); text-decoration-thickness: initial; text-decoration-style: initial; text-decoration-color: initial; float: none; display: inline !important;&quot;&gt;player_total_score [0..*]&lt;/span&gt;" style="text;strokeColor=none;fillColor=none;align=left;verticalAlign=middle;spacingLeft=4;spacingRight=4;overflow=hidden;points=[[0,0.5],[1,0.5]];portConstraint=eastwest;rotatable=0;whiteSpace=wrap;html=1;" vertex="1" parent="2HnAGzsjVUiI7YeuSGSB-53">
          <mxGeometry y="30" width="140" height="30" as="geometry" />
        </mxCell>
        <mxCell id="2HnAGzsjVUiI7YeuSGSB-55" value="&lt;span style=&quot;color: rgb(0, 0, 0); font-family: Helvetica; font-size: 12px; font-style: normal; font-variant-ligatures: normal; font-variant-caps: normal; font-weight: 400; letter-spacing: normal; orphans: 2; text-align: left; text-indent: 0px; text-transform: none; widows: 2; word-spacing: 0px; -webkit-text-stroke-width: 0px; background-color: rgb(251, 251, 251); text-decoration-thickness: initial; text-decoration-style: initial; text-decoration-color: initial; float: none; display: inline !important;&quot;&gt;total_penalties [0..*]&lt;/span&gt;" style="text;strokeColor=none;fillColor=none;align=left;verticalAlign=middle;spacingLeft=4;spacingRight=4;overflow=hidden;points=[[0,0.5],[1,0.5]];portConstraint=eastwest;rotatable=0;whiteSpace=wrap;html=1;" vertex="1" parent="2HnAGzsjVUiI7YeuSGSB-53">
          <mxGeometry y="60" width="140" height="30" as="geometry" />
        </mxCell>
      </root>
    </mxGraphModel>
  </diagram>
  <diagram id="ljjhWCgxkOfyudjzuant" name="Page-2">
    <mxGraphModel dx="1052" dy="869" grid="1" gridSize="10" guides="1" tooltips="1" connect="1" arrows="1" fold="1" page="1" pageScale="1" pageWidth="850" pageHeight="1100" math="0" shadow="0">
      <root>
        <mxCell id="0" />
        <mxCell id="1" parent="0" />
      </root>
    </mxGraphModel>
  </diagram>
</mxfile>
